<?xml version="1.0" encoding="UTF-8"?>
<svg version="1.1" xmlns="http://www.w3.org/2000/svg" width="500" height="500">
<path d="M0 0 C165 0 330 0 500 0 C500 165 500 330 500 500 C335 500 170 500 0 500 C0 335 0 170 0 0 Z " fill="#FDFEFE" transform="translate(0,0)"/>
<path d="M0 0 C1.50489259 0.52374291 3.01346281 1.03697007 4.52441406 1.54296875 C65.53731269 22.00763965 113.71921277 59.86993034 144.11572266 116.73632812 C144.45845215 117.37119141 144.80118164 118.00605469 145.15429688 118.66015625 C156.72832214 140.26795832 163.44834304 163.24960547 168.36572266 187.17382812 C168.51686523 187.90480713 168.66800781 188.63578613 168.82373047 189.38891602 C171.35730631 202.38135602 172.52805808 215.31332143 172.49072266 228.54882812 C172.49051117 229.25266632 172.49029968 229.95650452 172.49008179 230.68167114 C172.42945792 251.14983938 169.5700623 271.28116418 163.11572266 290.73632812 C162.84808105 291.56342285 162.58043945 292.39051758 162.3046875 293.24267578 C152.96986944 321.72151371 138.24665831 350.27183423 118.11572266 372.73632812 C117.45572266 373.06632812 116.79572266 373.39632813 116.11572266 373.73632812 C117.37987175 371.11393703 118.74490943 368.67680334 120.36572266 366.25976562 C138.59798112 338.77066591 153.72907377 308.61536376 159.70996094 275.91259766 C160.10936569 273.77042318 160.56227613 271.64445461 161.01806641 269.51367188 C167.64415594 235.84497045 164.23643527 196.2299858 154.11572266 163.73632812 C153.78572266 163.40632812 153.45572266 163.07632813 153.11572266 162.73632812 C151.63072266 168.18132812 151.63072266 168.18132812 150.11572266 173.73632812 C146.76689752 170.38750299 145.35093814 167.07227285 143.55322266 162.79882812 C130.73584541 133.30749118 114.54327964 106.90930969 92.11572266 83.73632812 C91.05611328 82.61677734 91.05611328 82.61677734 89.97509766 81.47460938 C65.16802176 55.81037842 31.39184798 37.62257945 -1.88427734 25.73632812 C-2.88765137 25.37764648 -3.89102539 25.01896484 -4.92480469 24.64941406 C-19.91312888 19.38189086 -34.89125629 15.80793333 -50.55371094 13.18188477 C-52.88427734 12.73632812 -52.88427734 12.73632812 -55.88427734 11.73632812 C-69.2837488 9.96836528 -82.62876461 9.32697347 -96.13427734 9.36132812 C-97.02536194 9.36253662 -97.91644653 9.36374512 -98.83453369 9.36499023 C-113.17660402 9.41750301 -126.92376977 10.19541427 -140.88427734 13.73632812 C-141.96805664 14.01009277 -143.05183594 14.28385742 -144.16845703 14.56591797 C-170.18641707 21.34410722 -195.63051334 31.97675211 -216.88427734 48.73632812 C-217.54427734 48.40632813 -218.20427734 48.07632813 -218.88427734 47.73632812 C-195.19463966 26.65521235 -164.77729161 11.89148741 -134.13427734 4.36132812 C-133.16586914 4.12244873 -132.19746094 3.88356934 -131.19970703 3.63745117 C-116.65845228 0.28373774 -102.20756548 -0.59793799 -87.3359375 -0.52441406 C-84.75415746 -0.51365053 -82.1730684 -0.52440819 -79.59130859 -0.53710938 C-69.49460716 -0.54559789 -59.86953475 0.14475865 -49.88427734 1.73632812 C-48.17268442 1.9664505 -46.46050613 2.19229721 -44.74755859 2.41210938 C11.77378143 10.13529602 66.30628133 36.82106899 106.11572266 77.73632812 C99.40381605 69.6820402 92.08062784 62.54024713 84.11572266 55.73632812 C83.16955078 54.90101562 82.22337891 54.06570312 81.24853516 53.20507812 C73.33013553 46.27138196 65.03092976 40.3194989 56.11572266 34.73632812 C55.18179688 34.14368164 55.18179688 34.14368164 54.22900391 33.5390625 C27.27743598 16.56235322 -2.55602788 3.65408561 -33.88427734 -2.26367188 C-34.69654785 -2.42061523 -35.50881836 -2.57755859 -36.34570312 -2.73925781 C-46.48343692 -4.66847664 -56.55415392 -5.99858615 -66.88427734 -6.26367188 C-67.90956543 -6.29090332 -68.93485352 -6.31813477 -69.99121094 -6.34619141 C-103.20084318 -7.08979534 -135.84671212 -2.48832517 -166.88427734 9.73632812 C-167.6005127 10.01057617 -168.31674805 10.28482422 -169.0546875 10.56738281 C-191.30107166 19.1028967 -213.65859309 30.19250132 -231.88427734 45.73632812 C-232.54427734 45.40632813 -233.20427734 45.07632813 -233.88427734 44.73632812 C-199.13828858 15.46794229 -156.39525742 -1.83317504 -111.88427734 -9.26367188 C-110.91393555 -9.42738281 -109.94359375 -9.59109375 -108.94384766 -9.75976562 C-72.890514 -15.64503156 -34.52453714 -12.03686371 0 0 Z " fill="#3EB8FF" transform="translate(325.88427734375,21.263671875)"/>
<path d="M0 0 C0 4.33000758 -2.49709046 6.86065386 -4.9375 10.25 C-33.7640611 51.29656692 -48.341705 98.1427816 -48.125 148.375 C-48.12016602 149.56254883 -48.11533203 150.75009766 -48.11035156 151.97363281 C-47.96031776 173.88456893 -45.4844991 195.30239692 -38 216 C-37.35611328 217.83884766 -37.35611328 217.83884766 -36.69921875 219.71484375 C-30.76489338 235.64558199 -21.45059624 249.68156573 -11 263 C-10.5767041 263.54043945 -10.1534082 264.08087891 -9.71728516 264.63769531 C1.26348057 278.48171378 13.98793761 291.24210511 28 302 C28.88405518 302.68795654 29.76811035 303.37591309 30.67895508 304.0847168 C37.80358555 309.5449944 45.11206238 314.29698605 52.875 318.8125 C54.06094298 319.50728513 55.24681407 320.20219299 56.43261719 320.8972168 C87.54881046 339.07598205 119.68105524 357.4170124 156 362 C153.25 367.875 153.25 367.875 151 369 C143.60914256 369.74151843 137.18454723 368.31055702 130.1875 366.0625 C129.19121582 365.74893555 128.19493164 365.43537109 127.16845703 365.11230469 C80.9184772 350.14197424 39.10102989 320.94620293 3.5625 288.25 C2.99539307 287.73139404 2.42828613 287.21278809 1.84399414 286.6784668 C-2.07951946 283.02737916 -5.59067227 279.13335784 -9 275 C19.28425216 320.38483091 66.89644518 347.59557824 116.4375 364.0625 C117.12960571 364.29260773 117.82171143 364.52271545 118.53479004 364.75979614 C132.97708563 369.52633899 146.66027929 373.15091565 161.953125 373.16796875 C163.00796082 373.17129715 164.06279663 373.17462555 165.14959717 373.17805481 C167.3819536 373.18310562 169.61431755 373.18546371 171.84667969 373.18530273 C175.19739943 373.18746604 178.54777692 373.20557715 181.8984375 373.22460938 C201.13681881 373.277997 219.44873371 371.41511047 238.3125 367.75 C239.1109433 367.59660156 239.9093866 367.44320313 240.73202515 367.28515625 C259.54949506 363.6553881 277.74113771 359.54679042 295 351 C295.66773438 350.67692871 296.33546875 350.35385742 297.0234375 350.02099609 C306.88970931 345.21118859 315.92579823 339.56419827 324.8449707 333.16552734 C325.60511475 332.62492676 326.36525879 332.08432617 327.1484375 331.52734375 C327.82052246 331.03999756 328.49260742 330.55265137 329.18505859 330.05053711 C331 329 331 329 334 329 C312.64741144 349.55639034 283.70595421 364.86467985 255.0625 371.9375 C254.04542969 372.18983398 253.02835937 372.44216797 251.98046875 372.70214844 C234.2700039 376.97431565 216.14248733 380.23899107 198 382 C196.91976563 382.11085938 195.83953125 382.22171875 194.7265625 382.3359375 C132.51732751 387.60308097 70.9754194 368.51221199 22.6472168 328.71459961 C20.05509256 326.52341401 17.52138892 324.27190582 15 322 C14.45263184 321.51289551 13.90526367 321.02579102 13.34130859 320.52392578 C-4.91203043 304.24702966 -18.77152681 285.69931585 -30 264 C-30.36996094 263.29037109 -30.73992188 262.58074219 -31.12109375 261.84960938 C-39.53309063 245.63930222 -46.24405586 228.94761887 -50.984375 211.29296875 C-52.13650624 207.02581603 -53.35922105 202.79557106 -54.6953125 198.58203125 C-64.99869229 166.08092881 -69.29150429 134.80934568 -63 101 C-62.7834375 99.81148438 -62.566875 98.62296875 -62.34375 97.3984375 C-61.64401217 93.90807858 -60.84013412 90.4593758 -60 87 C-59.80567383 86.17306641 -59.61134766 85.34613281 -59.41113281 84.49414062 C-53.69133662 60.33249035 -45.02814257 36.06460116 -30 16 C-29.505 16.99 -29.505 16.99 -29 18 C-29.84521484 19.95751953 -29.84521484 19.95751953 -31.2109375 22.3828125 C-31.70948242 23.28974854 -32.20802734 24.19668457 -32.72167969 25.13110352 C-33.26727539 26.11908936 -33.81287109 27.1070752 -34.375 28.125 C-56.80472464 70.12003302 -65.98748633 116.97842868 -58 164 C-57.98541748 163.21165771 -57.97083496 162.42331543 -57.95581055 161.61108398 C-56.7113911 101.00389959 -39.81014812 46.54570349 0 0 Z " fill="#3EB8FF" transform="translate(68,107)"/>
<path d="M0 0 C1.32 0 2.64 0 4 0 C4 1.32 4 2.64 4 4 C5.65 4 7.3 4 9 4 C9 5.32 9 6.64 9 8 C7.35 8 5.7 8 4 8 C3.87857191 17.12445325 6.48989612 21.93792362 12 29 C16 35.13872832 16 35.13872832 16 39 C18.18898758 37.6064559 20.37622812 36.21029392 22.5625 34.8125 C23.52833008 34.19773804 23.52833008 34.19773804 24.51367188 33.57055664 C27.78490127 31.47549495 30.94117052 29.33739796 34 26.9375 C37.59526879 24.61555558 38.78404765 24.53536488 43 25 C46.07387434 26.10651997 48.95736437 27.5361477 51.875 29 C52.70999023 29.40790771 53.54498047 29.81581543 54.40527344 30.23608398 C56.94259479 31.47944854 59.47152104 32.73877181 62 34 C63.42407615 34.7000392 64.84853012 35.39931055 66.2734375 36.09765625 C72.88040327 39.35303016 79.40055063 42.73894761 85.875 46.25 C91.43413176 49.26358494 97.04245824 51.86930271 103 54 C102.67 55.98 102.34 57.96 102 60 C100.35 59.67 98.7 59.34 97 59 C96.67 58.01 96.34 57.02 96 56 C94.68 56 93.36 56 92 56 C92.2165625 57.06927734 92.2165625 57.06927734 92.4375 58.16015625 C92.623125 59.11792969 92.80875 60.07570312 93 61.0625 C93.185625 62.00222656 93.37125 62.94195312 93.5625 63.91015625 C94.04362721 67.30811719 94.0283443 70.57211067 94 74 C94.85920044 73.99111755 95.71840088 73.98223511 96.6036377 73.9730835 C104.72440187 73.892737 112.8450314 73.831934 120.9661026 73.79275131 C125.14066101 73.77192938 129.31488933 73.74371149 133.48925781 73.69824219 C137.52228513 73.65459034 141.55499614 73.63082237 145.58824158 73.62049103 C147.12235997 73.61313415 148.65646222 73.59876808 150.19044495 73.57707977 C158.32936972 73.46664588 165.00409184 73.38397841 172 78 C172 78.33 172 78.66 172 79 C170.35 79 168.7 79 167 79 C167.16298584 79.83354004 167.32597168 80.66708008 167.49389648 81.52587891 C168.03867786 85.26550217 168.11277058 88.80735604 168.09765625 92.5859375 C168.09553383 93.63861313 168.09553383 93.63861313 168.09336853 94.71255493 C168.0878129 96.93341504 168.07526892 99.15417084 168.0625 101.375 C168.05747926 102.88932145 168.05291736 104.4036445 168.04882812 105.91796875 C168.03785807 109.61201252 168.02062449 113.30599606 168 117 C166.02 117 164.04 117 162 117 C160.46800504 104.74404035 160.42565522 92.34400151 160 80 C136.24 80 112.48 80 88 80 C87.67 72.41 87.34 64.82 87 57 C80.82757093 53.10041763 80.82757093 53.10041763 74.51953125 49.53515625 C73.75358643 49.13022949 72.9876416 48.72530273 72.19848633 48.30810547 C71.41111084 47.89705566 70.62373535 47.48600586 69.8125 47.0625 C68.98967529 46.6308252 68.16685059 46.19915039 67.3190918 45.75439453 C60.6430107 42.2781766 53.88642133 39.04139973 47 36 C47 35.34 47 34.68 47 34 C41.88153953 32.72875612 41.88153953 32.72875612 36.90429688 33.90039062 C34.76930901 35.26050228 32.75934631 36.71051984 30.75 38.25 C29.70972656 39.00603516 29.70972656 39.00603516 28.6484375 39.77734375 C25.93829309 41.75543766 23.27586923 43.78259312 20.640625 45.859375 C19 47 19 47 17 47 C17 54.26 17 61.52 17 69 C33.83 69 50.66 69 68 69 C68 84.18 68 99.36 68 115 C41.27 115 14.54 115 -13 115 C-13 103.45 -13 91.9 -13 80 C-28.84 80 -44.68 80 -61 80 C-61 91.55 -61 103.1 -61 115 C-63.31 115 -65.62 115 -68 115 C-68.20638953 91.41761516 -68.20638953 91.41761516 -67 80 C-67.99 79.67 -68.98 79.34 -70 79 C-67.90894832 76.51910815 -66.71253478 75.13541408 -63.46893311 74.51898193 C-62.51851135 74.52786438 -61.5680896 74.53674683 -60.58886719 74.54589844 C-59.50804871 74.54620056 -58.42723022 74.54650269 -57.31365967 74.54681396 C-56.15312073 74.56745911 -54.99258179 74.58810425 -53.796875 74.609375 C-52.60394836 74.61503479 -51.41102173 74.62069458 -50.1819458 74.62652588 C-46.37088944 74.64892074 -42.56077233 74.69912571 -38.75 74.75 C-36.16668024 74.77006085 -33.58334575 74.78831234 -31 74.8046875 C-24.66634606 74.84879589 -18.33324013 74.91574022 -12 75 C-12.02094727 73.82493896 -12.04189453 72.64987793 -12.06347656 71.43920898 C-12.13616277 67.05782371 -12.1819034 62.6764912 -12.21972656 58.29467773 C-12.23977703 56.4023338 -12.26702477 54.51005132 -12.30175781 52.61791992 C-12.35056652 49.88965649 -12.37303442 47.16221585 -12.390625 44.43359375 C-12.41127014 43.59477158 -12.43191528 42.7559494 -12.45318604 41.89170837 C-12.45614236 34.06065485 -9.55380154 29.52566417 -4.3125 23.75 C-0.31269574 18.80152422 0.08141744 14.22261898 0 8 C-1.65 8 -3.3 8 -5 8 C-5 6.68 -5 5.36 -5 4 C-3.35 4 -1.7 4 0 4 C0 2.68 0 1.36 0 0 Z " fill="#080808" transform="translate(200,99)"/>
<path d="M0 0 C10.23 0 20.46 0 31 0 C31 1.65 31 3.3 31 5 C26.05 6.485 26.05 6.485 21 8 C23.68241343 19.2976942 26.85035081 30.39824576 30.23876953 41.50292969 C31.4631167 45.51916537 32.67453954 49.53906475 33.875 53.5625 C34.19778931 54.62488892 34.19778931 54.62488892 34.52709961 55.70874023 C35.38311087 58.58489558 36 60.9803105 36 64 C36.66 64 37.32 64 38 64 C38.09925781 63.07703125 38.19851562 62.1540625 38.30078125 61.203125 C39.06103549 55.91186166 40.66142887 50.86187016 42.1875 45.75 C42.49921143 44.69312988 42.81092285 43.63625977 43.13208008 42.54736328 C45.31327481 35.19254519 47.58884871 27.87045542 49.92700195 20.56420898 C52.10212105 13.75021732 54.08854952 6.89246557 56 0 C57.65 0 59.3 0 61 0 C63.31371991 7.18016296 65.62619169 14.36072688 67.93710136 21.54179478 C69.01035933 24.87677273 70.0840355 28.2116148 71.15869141 31.54614258 C72.39612753 35.38582215 73.63170128 39.22609881 74.8671875 43.06640625 C75.25059296 44.25520889 75.63399841 45.44401154 76.02902222 46.6688385 C77.77204358 52.09128737 79.48682615 57.50864328 81 63 C83.51215716 56.7417732 85.1988846 50.49307674 86.75 43.9375 C89.69243066 31.80399971 93.24662054 19.90420941 97 8 C91.06 6.515 91.06 6.515 85 5 C85 3.35 85 1.7 85 0 C94.57 0 104.14 0 114 0 C114 1.65 114 3.3 114 5 C111.03 5.99 108.06 6.98 105 8 C104.87488037 9.00673264 104.74976074 10.01346527 104.62084961 11.05070496 C104.017728 14.88723015 103.13532587 18.45741936 102.06640625 22.1887207 C101.8727951 22.86928024 101.67918396 23.54983978 101.47970581 24.25102234 C100.8451167 26.47725026 100.20395158 28.70152187 99.5625 30.92578125 C99.11757263 32.48030327 98.67299802 34.0349263 98.22875977 35.58964539 C97.30020547 38.83573301 96.36859915 42.08092292 95.43457031 45.32543945 C94.23626236 49.48826772 93.04379196 53.65273939 91.85334778 57.81782246 C90.93708824 61.02238424 90.01870733 64.2263347 89.09957886 67.43007469 C88.65896648 68.96618231 88.21879967 70.5024178 87.77908325 72.03878212 C87.16594044 74.17919247 86.55017215 76.31882913 85.93359375 78.45825195 C85.58353271 79.67623978 85.23347168 80.8942276 84.87280273 82.14912415 C84 85 84 85 83 87 C81.02 87 79.04 87 77 87 C75.09700218 81.43587943 73.19477655 75.87149563 71.29321289 70.30688477 C70.64855935 68.42074758 70.00370843 66.53467785 69.35864258 64.64868164 C67.51657425 59.26274294 65.67883382 53.87536332 63.84674072 48.48602295 C63.04390219 46.12889643 62.23586295 43.77360603 61.42724609 41.41845703 C60.96553487 40.06162054 60.50408991 38.70469339 60.04296875 37.34765625 C59.64489014 36.18371338 59.24681152 35.01977051 58.83666992 33.82055664 C58 31 58 31 58 28 C57.34 28 56.68 28 56 28 C55.773125 29.134375 55.54625 30.26875 55.3125 31.4375 C53.61340235 39.0656167 51.2472397 46.51979405 49 54 C48.49324118 55.6965404 47.98673573 57.39315651 47.48046875 59.08984375 C44.69678122 68.40665753 41.88107122 77.71278217 39 87 C36.69 87 34.38 87 32 87 C31.73985107 86.15679199 31.47970215 85.31358398 31.21166992 84.44482422 C28.48950665 75.67498885 25.69376585 66.93078578 22.86328125 58.1953125 C22.11384633 55.87763196 21.36449872 53.55992319 20.61523438 51.2421875 C19.45939968 47.66705507 18.3019243 44.09249595 17.1394043 40.51953125 C16.00054824 37.0172684 14.86881568 33.51276906 13.73828125 30.0078125 C13.21951164 28.42155563 13.21951164 28.42155563 12.69026184 26.80325317 C10.69355003 20.58815142 9.11542969 14.43344747 8 8 C7.05125 7.690625 6.1025 7.38125 5.125 7.0625 C2 6 2 6 0 5 C0 3.35 0 1.7 0 0 Z " fill="#FF3636" transform="translate(194,241)"/>
<path d="M0 0 C3.79785817 2.4527834 6.16395506 4.84474039 8 9 C8.57001406 14.22512887 7.76316344 17.53642829 5 22 C1.95016004 23.52491998 -0.6423369 23.23562548 -4 23 C-5.7578125 21.82421875 -5.7578125 21.82421875 -7 20 C-6.93359375 17.44140625 -6.93359375 17.44140625 -6.4375 14.5625 C-5.77961886 10.19623883 -5.77961886 10.19623883 -7.75 6.375 C-12.84796601 3.25957633 -18.20125052 3.42594876 -24 4 C-30.46153741 6.8717944 -33.41373853 12.07876164 -35.9765625 18.4140625 C-40.90316143 34.39097678 -39.67765235 55.17986678 -32 70 C-31.67 70.99 -31.34 71.98 -31 73 C-28.57616923 74.16953416 -28.57616923 74.16953416 -26 75 C-25.34 75.33 -24.68 75.66 -24 76 C-13.7478776 77.02521224 -5.37420099 74.68536879 2.6015625 68.20703125 C3.06304687 67.80871094 3.52453125 67.41039062 4 67 C5.32 67.66 6.64 68.32 8 69 C8 73 8 73 6.56640625 74.78125 C1.6842112 78.96870774 -3.0123694 81.68942056 -9 84 C-9.99 84.495 -9.99 84.495 -11 85 C-22.14684399 85.79434285 -30.62636291 85.04480815 -40.25 78.9375 C-49.17552273 70.61881167 -51.77924476 58.0171827 -52.31640625 46.36328125 C-52.73009284 31.58423978 -52.38234893 17.21370248 -42.92578125 5.0234375 C-31.9248342 -6.5353669 -13.63045814 -7.02028906 0 0 Z " fill="#FF3737" transform="translate(364,244)"/>
<path d="M0 0 C11.88 0 23.76 0 36 0 C36 1.65 36 3.3 36 5 C30.555 6.485 30.555 6.485 25 8 C24.67 31.43 24.34 54.86 24 79 C31.92 78.67 39.84 78.34 48 78 C51.46802319 71.08814692 51.46802319 71.08814692 54 64 C55.32 64 56.64 64 58 64 C58 71.59 58 79.18 58 87 C38.86 87 19.72 87 0 87 C0 85.35 0 83.7 0 82 C3.96 81.01 7.92 80.02 12 79 C12 55.57 12 32.14 12 8 C6.06 6.515 6.06 6.515 0 5 C0 3.35 0 1.7 0 0 Z " fill="#FF3838" transform="translate(132,241)"/>
<path d="M0 0 C5.28 0 10.56 0 16 0 C16 8.91 16 17.82 16 27 C10.39 27 4.78 27 -1 27 C-1.02721831 23.9999376 -1.04694378 21.00012744 -1.0625 18 C-1.07087891 17.16082031 -1.07925781 16.32164062 -1.08789062 15.45703125 C-1.10824033 10.20680661 -0.76368207 5.19544338 0 0 Z " fill="#101010" transform="translate(153,186)"/>
<path d="M0 0 C4.95 0 9.9 0 15 0 C15 8.91 15 17.82 15 27 C10.05 27 5.1 27 0 27 C0 18.09 0 9.18 0 0 Z " fill="#040404" transform="translate(313,187)"/>
<path d="M0 0 C0.66 0 1.32 0 2 0 C2.99 0 3.98 0 5 0 C5.33 1.32 5.66 2.64 6 4 C8.475 4.495 8.475 4.495 11 5 C11 8.3 11 11.6 11 15 C10.34 15 9.68 15 9 15 C9 12.36 9 9.72 9 7 C7.68 7 6.36 7 5 7 C5 9.64 5 12.28 5 15 C3.23050905 15.10815225 1.45912513 15.18566083 -0.3125 15.25 C-1.29863281 15.29640625 -2.28476562 15.3428125 -3.30078125 15.390625 C-6 15 -6 15 -7.83203125 13.203125 C-9.53553831 9.98982071 -9.38334924 7.57792625 -9 4 C-6.92072676 -0.50509202 -4.68793454 -0.39897315 0 0 Z " fill="#EDEDED" transform="translate(284,356)"/>
<path d="M0 0 C-0.33 0.99 -0.66 1.98 -1 3 C-3.41732036 3.89240454 -5.77475951 4.61721683 -8.25 5.3125 C-33.2450412 13.01620325 -57.58007041 26.78417356 -78 43 C-78.66 42.67 -79.32 42.34 -80 42 C-64.7409952 29.14653243 -19.88851881 -6.62950627 0 0 Z " fill="#54C0FF" transform="translate(172,24)"/>
<path d="M0 0 C0.33 0.66 0.66 1.32 1 2 C0.15478516 3.95751953 0.15478516 3.95751953 -1.2109375 6.3828125 C-1.70996582 7.291521 -2.20899414 8.20022949 -2.72314453 9.13647461 C-3.26825684 10.12268799 -3.81336914 11.10890137 -4.375 12.125 C-8.90172189 20.53567864 -12.81215747 28.97703642 -16.125 37.9375 C-16.67293213 39.41790771 -16.67293213 39.41790771 -17.23193359 40.92822266 C-19.14263211 46.23470807 -20.74082432 51.50246493 -22 57 C-22.99 56.34 -23.98 55.68 -25 55 C-23.83405042 47.48247894 -21.59691126 40.93056142 -18.5 34 C-18.06292725 33.00830811 -17.62585449 32.01661621 -17.17553711 30.99487305 C-12.42383178 20.40771034 -7.31817092 9.10653423 0 0 Z " fill="#4EBEFF" transform="translate(38,123)"/>
<path d="M0 0 C1.32 0 2.64 0 4 0 C4 1.32 4 2.64 4 4 C5.65 4 7.3 4 9 4 C9 5.32 9 6.64 9 8 C7.35 8 5.7 8 4 8 C4.33 11.96 4.66 15.92 5 20 C1 21 1 21 -2 21 C-1.67 20.34 -1.34 19.68 -1 19 C-0.7724985 17.12943209 -0.59037189 15.25314042 -0.4375 13.375 C-0.35371094 12.37210938 -0.26992187 11.36921875 -0.18359375 10.3359375 C-0.12300781 9.56507812 -0.06242188 8.79421875 0 8 C-1.65 8 -3.3 8 -5 8 C-5 6.68 -5 5.36 -5 4 C-3.35 4 -1.7 4 0 4 C0 2.68 0 1.36 0 0 Z " fill="#313131" transform="translate(200,99)"/>
<path d="M0 0 C1 1 1 1 1.11352539 3.77563477 C1.10828857 4.98533936 1.10305176 6.19504395 1.09765625 7.44140625 C1.09443359 8.74658203 1.09121094 10.05175781 1.08789062 11.39648438 C1.07953401 12.7851569 1.07106905 14.17382877 1.0625 15.5625 C1.05748666 16.95507656 1.05292347 18.34765481 1.04882812 19.74023438 C1.03699442 23.16017451 1.01905831 26.5800925 1 30 C-4.61 30 -10.22 30 -16 30 C-16 29.67 -16 29.34 -16 29 C-11.05 29 -6.1 29 -1 29 C-1 20.09 -1 11.18 -1 2 C-5.95 2 -10.9 2 -16 2 C-16 1.67 -16 1.34 -16 1 C-10.67403774 0.09345323 -5.40652829 -0.39446773 0 0 Z " fill="#A0A0A0" transform="translate(329,185)"/>
<path d="M0 0 C0.99 0 1.98 0 3 0 C2.67 4.95 2.34 9.9 2 15 C0.68 15 -0.64 15 -2 15 C-2 14.01 -2 13.02 -2 12 C-2.66 12 -3.32 12 -4 12 C-4 12.99 -4 13.98 -4 15 C-4.99 15 -5.98 15 -7 15 C-7.93619813 11.84493858 -8.1057123 9.03413498 -8.0625 5.75 C-8.05347656 4.85796875 -8.04445312 3.9659375 -8.03515625 3.046875 C-8.02355469 2.37140625 -8.01195312 1.6959375 -8 1 C-7.34 1 -6.68 1 -6 1 C-6 3.97 -6 6.94 -6 10 C-5.34 10 -4.68 10 -4 10 C-4 8.68 -4 7.36 -4 6 C-3.01 6.33 -2.02 6.66 -1 7 C-0.67 4.69 -0.34 2.38 0 0 Z " fill="#202020" transform="translate(227,356)"/>
<path d="M0 0 C0.928125 0.20625 1.85625 0.4125 2.8125 0.625 C4.14328101 7.03694487 4.14328101 7.03694487 2.6875 9.625 C0.8125 10.625 0.8125 10.625 -1.75 10.4375 C-4.1875 9.625 -4.1875 9.625 -6.1875 7.625 C-6.5 4.625 -6.5 4.625 -6.1875 1.625 C-3.1875 -0.375 -3.1875 -0.375 0 0 Z " fill="#181818" transform="translate(243.1875,141.375)"/>
<path d="M0 0 C0 4.36209996 -2.54415727 6.95623903 -5 10.375 C-9.42272963 16.62595309 -13.46439493 22.96432368 -17.24609375 29.62109375 C-19 32 -19 32 -21.22265625 32.84765625 C-21.80917969 32.89792969 -22.39570312 32.94820312 -23 33 C-21.3662 28.01055091 -18.46454971 24.09701183 -15.4375 19.875 C-14.90608398 19.12742432 -14.37466797 18.37984863 -13.82714844 17.60961914 C-9.46357392 11.5256131 -4.86770089 5.69127655 0 0 Z " fill="#4FBEFF" transform="translate(68,107)"/>
<path d="M0 0 C1.65 0 3.3 0 5 0 C5 0.66 5 1.32 5 2 C3.68 2 2.36 2 1 2 C1 2.66 1 3.32 1 4 C2.32 4 3.64 4 5 4 C5 4.99 5 5.98 5 7 C3.68 7 2.36 7 1 7 C1 8.98 1 10.96 1 13 C2.32 13 3.64 13 5 13 C5 13.66 5 14.32 5 15 C2.03 15 -0.94 15 -4 15 C-4 14.34 -4 13.68 -4 13 C-3.34 13 -2.68 13 -2 13 C-2 11.02 -2 9.04 -2 7 C-2.66 7 -3.32 7 -4 7 C-4 6.01 -4 5.02 -4 4 C-3.01 4 -2.02 4 -1 4 C-0.67 2.68 -0.34 1.36 0 0 Z " fill="#4C4C4C" transform="translate(190,356)"/>
<path d="M0 0 C0.33 0.99 0.66 1.98 1 3 C-2.83827789 10.34756054 -8.43699419 17.03659778 -13.375 23.6875 C-13.89860107 24.39479248 -14.42220215 25.10208496 -14.96166992 25.83081055 C-15.70380737 26.81754761 -15.70380737 26.81754761 -16.4609375 27.82421875 C-17.12295166 28.70726685 -17.12295166 28.70726685 -17.79833984 29.6081543 C-19 31 -19 31 -21 32 C-19.6925021 29.28667917 -18.26226446 26.75899925 -16.609375 24.2421875 C-16.14974365 23.53835938 -15.6901123 22.83453125 -15.21655273 22.109375 C-14.49060913 21.00335938 -14.49060913 21.00335938 -13.75 19.875 C-10.05809068 14.2253604 -6.46125804 8.55508831 -3.12109375 2.6875 C-2 1 -2 1 0 0 Z " fill="#4CBDFF" transform="translate(463,363)"/>
<path d="M0 0 C2.375 0.75 2.375 0.75 3.375 1.75 C3.41563832 3.41617115 3.417721 5.08388095 3.375 6.75 C1.395 6.75 -0.585 6.75 -2.625 6.75 C-2.625 7.41 -2.625 8.07 -2.625 8.75 C-0.645 8.75 1.335 8.75 3.375 8.75 C3.375 9.41 3.375 10.07 3.375 10.75 C0 10.9375 0 10.9375 -3.625 10.75 C-5.78002531 7.51746204 -6.09356135 6.49849077 -5.625 2.75 C-3.89661648 0.0209734 -3.25158859 -0.3096751 0 0 Z " fill="#151515" transform="translate(202.625,360.25)"/>
<path d="M0 0 C0.99 0 1.98 0 3 0 C3 1.32 3 2.64 3 4 C3.804375 4.144375 4.60875 4.28875 5.4375 4.4375 C8 5 8 5 9 6 C9.07179964 7.51928038 9.08392007 9.04167482 9.0625 10.5625 C9.05347656 11.38878906 9.04445313 12.21507812 9.03515625 13.06640625 C9.02355469 13.70449219 9.01195312 14.34257812 9 15 C8.34 15 7.68 15 7 15 C6.67 12.36 6.34 9.72 6 7 C5.34 7 4.68 7 4 7 C3.67 9.64 3.34 12.28 3 15 C2.01 15 1.02 15 0 15 C0 10.05 0 5.1 0 0 Z " fill="#2F2F2F" transform="translate(253,356)"/>
<path d="M0 0 C0.66 0.33 1.32 0.66 2 1 C-3.20140409 6.00745343 -8.93259253 10.21251886 -14.8125 14.375 C-15.56587646 14.91092773 -16.31925293 15.44685547 -17.09545898 15.99902344 C-17.81290283 16.50208008 -18.53034668 17.00513672 -19.26953125 17.5234375 C-19.91510986 17.97638184 -20.56068848 18.42932617 -21.22583008 18.89599609 C-23 20 -23 20 -26 21 C-25.04545033 17.56717853 -24.25646828 16.18923506 -21.34765625 14.04296875 C-20.26355469 13.43066406 -19.17945313 12.81835938 -18.0625 12.1875 C-16.89096422 11.5077952 -15.72173253 10.82410554 -14.5546875 10.13671875 C-13.96397461 9.78915527 -13.37326172 9.4415918 -12.76464844 9.08349609 C-8.31113679 6.34903501 -4.17026461 3.14232363 0 0 Z " fill="#4ABCFF" transform="translate(400,435)"/>
<path d="M0 0 C0.66 0 1.32 0 2 0 C2.33 1.32 2.66 2.64 3 4 C4.65 4.33 6.3 4.66 8 5 C8 8.3 8 11.6 8 15 C7.34 15 6.68 15 6 15 C6 12.36 6 9.72 6 7 C4.68 7 3.36 7 2 7 C2 9.64 2 12.28 2 15 C1.34 15 0.68 15 0 15 C0 10.05 0 5.1 0 0 Z " fill="#020202" transform="translate(287,356)"/>
<path d="M0 0 C1.4540625 0.0309375 1.4540625 0.0309375 2.9375 0.0625 C3.2675 1.0525 3.5975 2.0425 3.9375 3.0625 C2.2875 3.3925 0.6375 3.7225 -1.0625 4.0625 C1.4125 5.0525 1.4125 5.0525 3.9375 6.0625 C3.9375 7.3825 3.9375 8.7025 3.9375 10.0625 C1.22870665 11.41689668 -1.07183268 11.12751451 -4.0625 11.0625 C-4.0625 10.4025 -4.0625 9.7425 -4.0625 9.0625 C-2.4125 9.0625 -0.7625 9.0625 0.9375 9.0625 C0.9375 8.4025 0.9375 7.7425 0.9375 7.0625 C-0.7125 6.7325 -2.3625 6.4025 -4.0625 6.0625 C-4.105221 4.39638095 -4.10313832 2.72867115 -4.0625 1.0625 C-3.0625 0.0625 -3.0625 0.0625 0 0 Z " fill="#202020" transform="translate(325.0625,359.9375)"/>
<path d="M0 0 C0.99 0 1.98 0 3 0 C3 0.66 3 1.32 3 2 C4.32 2 5.64 2 7 2 C7 2.99 7 3.98 7 5 C5.68 5 4.36 5 3 5 C3 6.98 3 8.96 3 11 C4.32 11 5.64 11 7 11 C7 11.66 7 12.32 7 13 C5.02 13 3.04 13 1 13 C0.63447197 11.58622218 0.28304505 10.16879424 -0.0625 8.75 C-0.25972656 7.96109375 -0.45695312 7.1721875 -0.66015625 6.359375 C-1.01497267 3.89605178 -0.76877544 2.34395868 0 0 Z " fill="#555555" transform="translate(333,358)"/>
<path d="M0 0 C2.97 0 5.94 0 9 0 C9 0.99 9 1.98 9 3 C7.68 3 6.36 3 5 3 C5 4.98 5 6.96 5 9 C5.99 9 6.98 9 8 9 C8 9.66 8 10.32 8 11 C5.69 11 3.38 11 1 11 C1.33 8.36 1.66 5.72 2 3 C1.34 3 0.68 3 0 3 C0 2.01 0 1.02 0 0 Z " fill="#515151" transform="translate(298,360)"/>
<path d="M0 0 C0 0.66 0 1.32 0 2 C-1.65 2.33 -3.3 2.66 -5 3 C-5 5.97 -5 8.94 -5 12 C-3.35 12.33 -1.7 12.66 0 13 C0 13.66 0 14.32 0 15 C-5.42168675 15.48192771 -5.42168675 15.48192771 -7.875 13.4375 C-9.42190908 10.08586365 -9.39126176 7.65177642 -9 4 C-6.9285531 -0.48813496 -4.68078576 -0.41606985 0 0 Z " fill="#191919" transform="translate(284,356)"/>
<path d="M0 0 C0.99 0 1.98 0 3 0 C3 4.29 3 8.58 3 13 C4.98 13 6.96 13 9 13 C9 13.66 9 14.32 9 15 C6.03 15 3.06 15 0 15 C0 10.05 0 5.1 0 0 Z " fill="#323232" transform="translate(164,356)"/>
<path d="M0 0 C0.66 0.33 1.32 0.66 2 1 C-1.91857991 5.27132879 -6.11947291 8.19268707 -11.0625 11.1875 C-11.76955078 11.62513672 -12.47660156 12.06277344 -13.20507812 12.51367188 C-16.41508714 14.48790277 -19.61055967 16.3471739 -23 18 C-19.56864564 14.43013225 -16.05632875 11.39303607 -12.0625 8.4375 C-11.06347656 7.69371094 -10.06445312 6.94992188 -9.03515625 6.18359375 C-6.06495577 4.04673137 -3.05713053 2.00923184 0 0 Z " fill="#4DBDFF" transform="translate(130,52)"/>
<path d="M0 0 C1.98 0.495 1.98 0.495 4 1 C4.19847988 12.68825948 3.59079499 24.33022763 3 36 C2.67 36 2.34 36 2 36 C1.97079857 31.81251481 1.95313354 27.62505609 1.9375 23.4375 C1.92912109 22.25607422 1.92074219 21.07464844 1.91210938 19.85742188 C1.89607001 14.13136928 1.9489295 8.63605518 3 3 C1.68 3 0.36 3 -1 3 C-0.67 2.01 -0.34 1.02 0 0 Z " fill="#D9D9D9" transform="translate(129,178)"/>
<path d="M0 0 C0.66 0 1.32 0 2 0 C2 0.66 2 1.32 2 2 C3.32 2 4.64 2 6 2 C6 2.66 6 3.32 6 4 C4.68 4 3.36 4 2 4 C2 6.31 2 8.62 2 11 C3.32 11 4.64 11 6 11 C6 11.66 6 12.32 6 13 C4.33388095 13.042721 2.66617115 13.04063832 1 13 C0 12 0 12 -0.09765625 10.15234375 C-0.06510417 8.1015625 -0.03255208 6.05078125 0 4 C-0.66 4 -1.32 4 -2 4 C-2 3.34 -2 2.68 -2 2 C-1.34 2 -0.68 2 0 2 C0 1.34 0 0.68 0 0 Z " fill="#121212" transform="translate(244,358)"/>
<path d="M0 0 C1.65 0 3.3 0 5 0 C5 2.97 5 5.94 5 9 C5.66 9 6.32 9 7 9 C7 9.66 7 10.32 7 11 C4.69 11 2.38 11 0 11 C0 10.34 0 9.68 0 9 C0.99 9 1.98 9 3 9 C3 6.69 3 4.38 3 2 C2.01 2 1.02 2 0 2 C0 1.34 0 0.68 0 0 Z " fill="#1A1A1A" transform="translate(232,360)"/>
<path d="M0 0 C1.65 0 3.3 0 5 0 C5 2.97 5 5.94 5 9 C5.66 9 6.32 9 7 9 C7 9.66 7 10.32 7 11 C4.69 11 2.38 11 0 11 C0 10.34 0 9.68 0 9 C0.99 9 1.98 9 3 9 C3 6.69 3 4.38 3 2 C2.01 2 1.02 2 0 2 C0 1.34 0 0.68 0 0 Z " fill="#1A1A1A" transform="translate(176,360)"/>
<path d="M0 0 C1.32 0 2.64 0 4 0 C4 1.32 4 2.64 4 4 C5.65 4 7.3 4 9 4 C9 5.32 9 6.64 9 8 C7.35 8 5.7 8 4 8 C5.32 7.67 6.64 7.34 8 7 C8 6.34 8 5.68 8 5 C3.71 5 -0.58 5 -5 5 C-5 4.67 -5 4.34 -5 4 C-3.35 4 -1.7 4 0 4 C0 2.68 0 1.36 0 0 Z " fill="#707070" transform="translate(200,99)"/>
<path d="M0 0 C1.32 0 2.64 0 4 0 C4 2.64 4 5.28 4 8 C4.99 8 5.98 8 7 8 C7 8.66 7 9.32 7 10 C4.36 10 1.72 10 -1 10 C-1 9.34 -1 8.68 -1 8 C-0.01 8 0.98 8 2 8 C2 5.69 2 3.38 2 1 C1.34 0.67 0.68 0.34 0 0 Z " fill="#080808" transform="translate(311,361)"/>
<path d="M0 0 C1.65 0 3.3 0 5 0 C5 0.66 5 1.32 5 2 C3.68 2 2.36 2 1 2 C1 2.99 1 3.98 1 5 C1.99 5.33 2.98 5.66 4 6 C2.68 6 1.36 6 0 6 C0 7.98 0 9.96 0 12 C-0.33 12 -0.66 12 -1 12 C-1 10.02 -1 8.04 -1 6 C-1.66 5.67 -2.32 5.34 -3 5 C-2.34 5 -1.68 5 -1 5 C-0.67 3.35 -0.34 1.7 0 0 Z " fill="#060606" transform="translate(190,356)"/>
<path d="M0 0 C0.99 0.33 1.98 0.66 3 1 C1.37965717 3.14949538 -0.24595794 5.2946141 -1.875 7.4375 C-2.33519531 8.04916016 -2.79539062 8.66082031 -3.26953125 9.29101562 C-6.7734375 13.88671875 -6.7734375 13.88671875 -9 15 C-7.38325319 11.57053707 -5.42402323 8.43736948 -3.375 5.25 C-2.74335938 4.26515625 -2.11171875 3.2803125 -1.4609375 2.265625 C-0.97882813 1.51796875 -0.49671875 0.7703125 0 0 Z " fill="#61C5FF" transform="translate(451,380)"/>
<path d="M0 0 C2.475 0.495 2.475 0.495 5 1 C5 4.3 5 7.6 5 11 C4.34 11 3.68 11 3 11 C3 8.36 3 5.72 3 3 C2.01 2.67 1.02 2.34 0 2 C0 1.34 0 0.68 0 0 Z " fill="#252525" transform="translate(290,360)"/>
<path d="M0 0 C1.65 0 3.3 0 5 0 C3.68 0.33 2.36 0.66 1 1 C1.33 2.98 1.66 4.96 2 7 C3.32 7.33 4.64 7.66 6 8 C6 8.66 6 9.32 6 10 C4.02 10 2.04 10 0 10 C0 6.7 0 3.4 0 0 Z " fill="#0F0F0F" transform="translate(334,361)"/>
<path d="M0 0 C0.94875 0.04125 1.8975 0.0825 2.875 0.125 C2.875 0.785 2.875 1.445 2.875 2.125 C1.225 2.455 -0.425 2.785 -2.125 3.125 C-2.455 5.765 -2.785 8.405 -3.125 11.125 C-3.455 11.125 -3.785 11.125 -4.125 11.125 C-4.34674933 9.66864629 -4.55198698 8.20977044 -4.75 6.75 C-4.86601562 5.93789063 -4.98203125 5.12578125 -5.1015625 4.2890625 C-5.10929687 3.57492187 -5.11703125 2.86078125 -5.125 2.125 C-3.125 0.125 -3.125 0.125 0 0 Z " fill="#353535" transform="translate(281.125,355.875)"/>
<path d="M0 0 C-1.26540052 3.79620155 -2.78218431 4.48678188 -6.0625 6.6875 C-6.98160156 7.31011719 -7.90070313 7.93273437 -8.84765625 8.57421875 C-9.55792969 9.04472656 -10.26820312 9.51523438 -11 10 C-11.66 9.67 -12.32 9.34 -13 9 C-11.21326795 7.4941255 -9.42046492 5.9954515 -7.625 4.5 C-6.62726563 3.6646875 -5.62953125 2.829375 -4.6015625 1.96875 C-2 0 -2 0 0 0 Z " fill="#65C6FF" transform="translate(120,60)"/>
<path d="M0 0 C1.98 0 3.96 0 6 0 C6.33 0.99 6.66 1.98 7 3 C4.69 3.33 2.38 3.66 0 4 C0 2.68 0 1.36 0 0 Z " fill="#474747" transform="translate(322,360)"/>
<path d="M0 0 C0.66 0.33 1.32 0.66 2 1 C0.76446724 2.20254524 -0.48902339 3.38666232 -1.75 4.5625 C-2.79414063 5.55443359 -2.79414063 5.55443359 -3.859375 6.56640625 C-4.56578125 7.03949219 -5.2721875 7.51257813 -6 8 C-7.32 7.67 -8.64 7.34 -10 7 C-6.7 4.69 -3.4 2.38 0 0 Z " fill="#5DC3FF" transform="translate(400,435)"/>
<path d="M0 0 C1.98 0.495 1.98 0.495 4 1 C4 5.29 4 9.58 4 14 C3.67 14 3.34 14 3 14 C3 10.37 3 6.74 3 3 C1.68 3 0.36 3 -1 3 C-0.67 2.01 -0.34 1.02 0 0 Z " fill="#B7B7B7" transform="translate(129,178)"/>
<path d="M0 0 C1.2065625 0.0309375 1.2065625 0.0309375 2.4375 0.0625 C2.7675 1.0525 3.0975 2.0425 3.4375 3.0625 C2.261875 2.9696875 2.261875 2.9696875 1.0625 2.875 C-0.236875 2.9678125 -0.236875 2.9678125 -1.5625 3.0625 C-2.2225 4.0525 -2.8825 5.0425 -3.5625 6.0625 C-3.605221 4.39638095 -3.60313832 2.72867115 -3.5625 1.0625 C-2.5625 0.0625 -2.5625 0.0625 0 0 Z " fill="#888888" transform="translate(200.5625,361.9375)"/>
<path d="M0 0 C0.33 0 0.66 0 1 0 C1 1.98 1 3.96 1 6 C2.32 6 3.64 6 5 6 C5 6.66 5 7.32 5 8 C2.69 8 0.38 8 -2 8 C-2 7.34 -2 6.68 -2 6 C-1.34 6 -0.68 6 0 6 C0 4.02 0 2.04 0 0 Z " fill="#030303" transform="translate(301,363)"/>
<path d="M0 0 C0.99 0.33 1.98 0.66 3 1 C2.67 2.65 2.34 4.3 2 6 C0.68 6.33 -0.64 6.66 -2 7 C-2 6.01 -2 5.02 -2 4 C-1.34 4 -0.68 4 0 4 C0 2.68 0 1.36 0 0 Z " fill="#464646" transform="translate(223,362)"/>
<path d="M0 0 C2 1 2 1 2.8515625 3.28515625 C3.10679687 4.20167969 3.36203125 5.11820313 3.625 6.0625 C3.88539063 6.98160156 4.14578125 7.90070313 4.4140625 8.84765625 C4.60742188 9.55792969 4.80078125 10.26820313 5 11 C1.87729874 8.48169253 1.05476902 7.2738451 0.25 3.25 C0.1675 2.1775 0.085 1.105 0 0 Z " fill="#64C6FF" transform="translate(475,197)"/>
<path d="M0 0 C1.32 0 2.64 0 4 0 C4 0.66 4 1.32 4 2 C3.34 2 2.68 2 2 2 C2 4.97 2 7.94 2 11 C1.67 11 1.34 11 1 11 C0.67 7.37 0.34 3.74 0 0 Z " fill="#A1A1A1" transform="translate(292,155)"/>
<path d="M0 0 C1.32 0.33 2.64 0.66 4 1 C4 2.32 4 3.64 4 5 C2.68 5 1.36 5 0 5 C0 3.35 0 1.7 0 0 Z " fill="#1E1E1E" transform="translate(225,366)"/>
<path d="M0 0 C2.64 0.33 5.28 0.66 8 1 C8 1.66 8 2.32 8 3 C5.69 3 3.38 3 1 3 C0.67 2.01 0.34 1.02 0 0 Z " fill="#1E1E1E" transform="translate(198,368)"/>
</svg>
