<?xml version="1.0" encoding="UTF-8"?>
<svg width="36px" height="36px" viewBox="0 0 36 36" version="1.1" xmlns="http://www.w3.org/2000/svg" xmlns:xlink="http://www.w3.org/1999/xlink">
    <title>Group</title>
    <g id="Page-1" stroke="none" stroke-width="1" fill="none" fill-rule="evenodd">
        <g id="Group" transform="translate(1.000000, 1.000000)" fill-rule="nonzero">
            <circle id="Oval" stroke="#979797" fill="#999999" cx="17" cy="17" r="17"></circle>
            <g id="instagram" transform="translate(7.500000, 7.500000)" fill="#FFFFFF">
                <path d="M8.997,4.372 C6.44323532,4.372 4.373,6.44223532 4.373,8.996 C4.373,11.5497647 6.44323532,13.62 8.997,13.62 C11.5507647,13.62 13.621,11.5497647 13.621,8.996 C13.621,6.44223532 11.5507647,4.372 8.997,4.372 Z M8.997,11.999 C7.33793661,11.999 5.993,10.6540634 5.993,8.995 C5.993,7.33593661 7.33793661,5.991 8.997,5.991 C10.6560634,5.991 12.001,7.33593661 12.001,8.995 C12.001,10.6540634 10.6560634,11.999 8.997,11.999 L8.997,11.999 Z" id="Shape"></path>
                <circle id="Oval" cx="13.804" cy="4.202" r="1.078"></circle>
                <path d="M17.531,3.106 C17.0629006,1.89718296 16.1069948,0.941640203 14.898,0.474 C14.1983363,0.211356962 13.4591782,0.0693412208 12.712,0.054 C11.749,0.012 11.444,0 9.002,0 C6.56,0 6.247,0 5.292,0.054 C4.54538904,0.068556839 3.8067568,0.210601501 3.108,0.474 C1.89865798,0.941106725 0.94256608,1.89683551 0.475,3.106 C0.212304818,3.8056125 0.0706145225,4.54483681 0.056,5.292 C0.013,6.254 0,6.559 0,9.002 C0,11.444 0,11.755 0.056,12.712 C0.071,13.46 0.212,14.198 0.475,14.899 C0.94385679,16.1076716 1.8999726,17.0630614 3.109,17.531 C3.80643364,17.8041969 4.54537183,17.956381 5.294,17.981 C6.257,18.023 6.562,18.036 9.004,18.036 C11.446,18.036 11.759,18.036 12.714,17.981 C13.4611023,17.9658055 14.2002296,17.8241338 14.9,17.562 C16.1086418,17.0932836 17.0642836,16.1376418 17.533,14.929 C17.796,14.229 17.937,13.491 17.952,12.743 C17.995,11.781 18.008,11.476 18.008,9.033 C18.008,6.59 18.008,6.28 17.952,5.323 C17.9403596,4.56527249 17.7979329,3.81524842 17.531,3.106 L17.531,3.106 Z M16.313,12.638 C16.3065517,13.2143042 16.2013617,13.7852385 16.002,14.326 C15.6983261,15.1123527 15.07653,15.7337856 14.29,16.037 C13.7552261,16.2354479 13.19036,16.3406415 12.62,16.348 C11.67,16.392 11.402,16.403 8.966,16.403 C6.528,16.403 6.279,16.403 5.311,16.348 C4.74092756,16.3410233 4.1763253,16.2358158 3.642,16.037 C2.85267581,15.7356473 2.22803142,15.1139099 1.923,14.326 C1.72644622,13.7910506 1.62131169,13.2268399 1.612,12.657 C1.569,11.707 1.559,11.439 1.559,9.003 C1.559,6.566 1.559,6.317 1.612,5.348 C1.61846385,4.77202267 1.72365506,4.20141953 1.923,3.661 C2.228,2.872 2.853,2.251 3.642,1.949 C4.17658963,1.75114005 4.74102526,1.64596361 5.311,1.638 C6.262,1.595 6.529,1.583 8.966,1.583 C11.403,1.583 11.653,1.583 12.62,1.638 C13.1904089,1.6448619 13.7553592,1.7500712 14.29,1.949 C15.0764533,2.25286748 15.6981325,2.87454666 16.002,3.661 C16.1985538,4.19594938 16.3036883,4.76016009 16.313,5.33 C16.356,6.281 16.367,6.548 16.367,8.985 C16.367,11.421 16.367,11.683 16.324,12.639 L16.313,12.639 L16.313,12.638 Z" id="Shape"></path>
            </g>
        </g>
    </g>
</svg>