<?xml version="1.0" encoding="UTF-8"?>
<svg width="36px" height="36px" viewBox="0 0 36 36" version="1.1" xmlns="http://www.w3.org/2000/svg" xmlns:xlink="http://www.w3.org/1999/xlink">
    <title>Group</title>
    <g id="Page-1" stroke="none" stroke-width="1" fill="none" fill-rule="evenodd">
        <g id="Group" transform="translate(1.000000, 1.000000)" fill-rule="nonzero">
            <circle id="Oval-Copy" stroke="#979797" fill="#999999" cx="17" cy="17" r="17"></circle>
            <g id="linkedin" transform="translate(7.500000, 7.500000)" fill="#FFFFFF">
                <circle id="Oval" cx="2.188" cy="2.188" r="2.188"></circle>
                <path d="M6.442,6.034 L6.442,18.173 L10.211,18.173 L10.211,12.17 C10.211,10.586 10.509,9.052 12.473,9.052 C14.41,9.052 14.434,10.863 14.434,12.27 L14.434,18.174 L18.205,18.174 L18.205,11.517 C18.205,8.247 17.501,5.734 13.679,5.734 C11.844,5.734 10.614,6.741 10.111,7.694 L10.06,7.694 L10.06,6.034 L6.442,6.034 L6.442,6.034 Z M0.3,6.034 L4.075,6.034 L4.075,18.173 L0.3,18.173 L0.3,6.034 Z" id="Shape"></path>
            </g>
        </g>
    </g>
</svg>