<?xml version="1.0" encoding="UTF-8"?>
<svg width="36px" height="36px" viewBox="0 0 36 36" version="1.1" xmlns="http://www.w3.org/2000/svg" xmlns:xlink="http://www.w3.org/1999/xlink">
    <title>Group</title>
    <g id="Page-1" stroke="none" stroke-width="1" fill="none" fill-rule="evenodd">
        <g id="Group" transform="translate(1.000000, 1.000000)" fill-rule="nonzero">
            <circle id="Oval-Copy-3" stroke="#979797" fill="#999999" cx="17" cy="17" r="17"></circle>
            <g id="twitter" transform="translate(7.500000, 9.500000)" fill="#FFFFFF">
                <path d="M17.633,3.978001 C17.646,4.153001 17.646,4.327001 17.646,4.501001 C17.646,9.826001 13.593,15.962001 6.186,15.962001 C3.904,15.962001 1.784,15.301001 0,14.153001 C0.324,14.190001 0.636,14.203001 0.973,14.203001 C2.78599239,14.2073806 4.54764565,13.6011408 5.974,12.482001 C4.25078434,12.4508116 2.73751754,11.3288169 2.207,9.689001 C2.456,9.726001 2.706,9.751001 2.968,9.751001 C3.329,9.751001 3.692,9.701001 4.029,9.614001 C2.14801166,9.23421648 0.796304904,7.57994502 0.799,5.661001 L0.799,5.611001 C1.336,5.910001 1.959,6.097001 2.619,6.122001 C1.49596775,5.37573594 0.821604839,4.11637447 0.823,2.768001 C0.823,2.020001 1.022,1.334001 1.371,0.736000995 C3.41785889,3.25381865 6.43637019,4.78560593 9.677,4.951001 C9.615,4.651001 9.577,4.340001 9.577,4.028001 C9.57646909,2.95954631 10.000676,1.93470025 10.7561876,1.1791886 C11.5116993,0.423676947 12.5365453,-0.000529914717 13.605,0 C14.765,0 15.812,0.486000995 16.548,1.272001 C17.4497712,1.09761815 18.3145423,0.768423183 19.104,0.299000995 C18.8034117,1.22981706 18.1737591,2.01910498 17.333,2.519001 C18.132787,2.42777994 18.9144331,2.21745342 19.652,1.895001 C19.1011305,2.6980995 18.4185223,3.40234556 17.633,3.978001 Z" id="Path"></path>
            </g>
        </g>
    </g>
</svg>