<?xml version="1.0" encoding="UTF-8"?>
<svg width="36px" height="36px" viewBox="0 0 36 36" version="1.1" xmlns="http://www.w3.org/2000/svg" xmlns:xlink="http://www.w3.org/1999/xlink">
    <title>Group</title>
    <g id="Page-1" stroke="none" stroke-width="1" fill="none" fill-rule="evenodd">
        <g id="Group" transform="translate(1.000000, 1.000000)" fill-rule="nonzero">
            <circle id="Oval-Copy-2" stroke="#979797" fill="#999999" cx="17" cy="17" r="17"></circle>
            <path d="M26.1070029,11.7030152 C25.8752208,10.8430631 25.2044272,10.1707467 24.3450029,9.9370152 C22.7790029,9.5070152 16.5140029,9.50000003 16.5140029,9.50000003 C16.5140029,9.50000003 10.2500029,9.49301517 8.68300293,9.9040152 C7.82466459,10.1483468 7.15551633,10.8220419 6.91700293,11.6820152 C6.50400293,13.2480152 6.5,16.4960152 6.5,16.4960152 C6.5,16.4960152 6.49600293,19.7600152 6.90600293,21.3100152 C7.13600293,22.1670152 7.81100293,22.8440152 8.66900293,23.0750152 C10.2510029,23.5050152 16.4990029,23.5120304 16.4990029,23.5120304 C16.4990029,23.5120304 22.7640029,23.5190152 24.3300029,23.1090152 C25.1896446,22.8757214 25.8617615,22.205126 26.0970029,21.3460152 C26.5110029,19.7810152 26.5142934,16.5340152 26.5142934,16.5340152 C26.5142934,16.5340152 26.5340029,13.2690152 26.1070029,11.7030152 L26.1070029,11.7030152 Z M14.5100029,19.5050152 L14.5150029,13.5050152 L19.7220029,16.5100152 L14.5100029,19.5050152 L14.5100029,19.5050152 Z" id="Shape" fill="#FFFFFF"></path>
        </g>
    </g>
</svg>